{
  "asset": { "version": "2.0", "generator": "open-assistant media-mock" },
  "scene": 0,
  "scenes": [{ "nodes": [0] }],
  "nodes": [{ "mesh": 0, "weights": [0, 0] }],
  "meshes": [
    {
      "primitives": [
        {
          "attributes": { "POSITION": 0 },
          "indices": 1,
          "targets": [{ "POSITION": 2 }, { "POSITION": 3 }]
        }
      ],
      "weights": [0, 0],
      "extras": { "targetNames": ["jawOpen", "viseme_aa"] }
    }
  ],
  "accessors": [
    {
      "bufferView": 0,
      "componentType": 5126,
      "count": 3,
      "type": "VEC3",
      "min": [0, 0, 0],
      "max": [1, 1, 0]
    },
    {
      "bufferView": 1,
      "componentType": 5123,
      "count": 3,
      "type": "SCALAR"
    },
    {
      "bufferView": 2,
      "componentType": 5126,
      "count": 3,
      "type": "VEC3",
      "min": [0, -0.5, 0],
      "max": [0, 0, 0]
    },
    {
      "bufferView": 3,
      "componentType": 5126,
      "count": 3,
      "type": "VEC3",
      "min": [0, 0, 0],
      "max": [0.2, 0.2, 0]
    }
  ],
  "bufferViews": [
    { "buffer": 0, "byteOffset": 0, "byteLength": 36, "target": 34962 },
    { "buffer": 0, "byteOffset": 36, "byteLength": 6, "target": 34963 },
    { "buffer": 0, "byteOffset": 44, "byteLength": 36, "target": 34962 },
    { "buffer": 0, "byteOffset": 80, "byteLength": 36, "target": 34962 }
  ],
  "buffers": [
    {
      "uri": "data:application/octet-stream;base64,",
      "byteLength": 116
    }
  ]
}
